<svg width="187" height="54" viewBox="0 0 187 54" fill="none" xmlns="http://www.w3.org/2000/svg">
<g id="Asymbl Logo (4) 1" clip-path="url(#clip0_48_1151)">
<path id="Vector" d="M15.8422 40.9438C13.9557 40.9175 12.1526 40.5923 10.3758 39.9727C8.62527 39.3486 7.1731 38.3774 6.07191 37.0547C4.96634 35.7319 4.40039 34.0049 4.40039 31.8472C4.40039 29.6895 4.96634 28.0679 6.09824 26.855C7.22575 25.6377 8.70862 24.7764 10.5118 24.2358C12.3412 23.6953 14.2233 23.4272 16.2151 23.4272H24.8842C24.4016 21.8057 23.4584 20.6455 22.0589 19.8896C20.6857 19.1338 19.2028 18.7559 17.6453 18.7559C16.0835 18.7559 14.9253 19.0283 13.6047 19.5952C12.3149 20.1621 11.2664 20.9443 10.5118 21.9155L5.79991 17.8374C7.25207 15.5698 9.11224 14.0317 11.319 13.2231C13.5521 12.4146 15.8115 12.0103 18.1543 12.0103C20.497 12.0103 21.6552 12.2783 23.3487 12.7925C25.0466 13.3066 26.6084 14.0889 27.9816 15.0864C29.3504 16.1104 30.456 17.354 31.2895 18.8657C32.1231 20.3774 32.5267 22.1045 32.5267 24.0469V34.4663L32.8251 40.3506H26.1477L25.4502 36.4878C24.4806 37.9731 23.1074 39.1069 21.3043 39.8364C19.5011 40.5659 17.6717 40.9175 15.7852 40.9175H15.8422V40.9438ZM16.5924 34.6289C17.7506 34.6289 18.9352 34.4663 20.1461 34.1675C21.3832 33.873 22.4625 33.2798 23.4057 32.4404C24.3446 31.6055 24.9106 30.3882 25.0992 28.8501H16.0309C15.035 28.8501 14.0917 29.0962 13.1748 29.606C12.2886 30.0938 11.8279 30.8496 11.8279 31.7944C11.8279 32.7393 12.0999 33.0337 12.6352 33.4688C13.1748 33.8994 13.8197 34.1938 14.548 34.3564C15.3026 34.519 15.9738 34.6289 16.5924 34.6289Z" fill="white"/>
<path id="Vector_2" d="M46.7413 40.9439C44.3722 40.9439 42.1654 40.645 40.0903 40.0518C38.0458 39.4585 36.3524 38.4609 35.0318 37.0547C33.7113 35.6528 32.9874 33.7632 32.8251 31.3901L39.9587 31.4956C40.0376 32.4141 40.3886 33.1436 41.0335 33.627C41.6784 34.1147 42.5427 34.4663 43.5913 34.6553C44.6398 34.8442 45.7454 34.9497 46.9036 34.9497C48.8954 34.9497 50.4528 34.6816 51.6111 34.1411C52.7693 33.6006 53.3352 32.9019 53.3352 32.0625C53.3352 31.2275 52.8483 30.7925 51.8524 30.3618C50.8872 29.9312 49.242 29.6587 46.9562 29.5796C45.4207 29.5005 43.8589 29.3643 42.2707 29.1226C40.6825 28.8765 39.2041 28.4985 37.8572 27.9316C36.484 27.3647 35.4091 26.5562 34.5756 25.5059C33.7376 24.4512 33.334 23.0493 33.334 21.2651C33.334 19.4854 33.7683 18.1099 34.6019 16.9761C35.4355 15.8423 36.5366 14.9238 37.8835 14.2471C39.2304 13.5483 40.6562 13.0605 42.1917 12.7661C43.7273 12.4673 45.2058 12.3311 46.6053 12.3311C48.0048 12.3311 49.6719 12.4673 51.2338 12.7397C52.7956 13.0078 54.2214 13.4912 55.542 14.1943C56.8625 14.8975 57.9374 15.8423 58.7973 17.0552C59.6309 18.2725 60.1442 19.7842 60.2802 21.6431L53.3879 21.8892C53.1992 20.8081 52.6596 20.0259 51.7997 19.5117C50.9398 18.9976 50.0229 18.6768 49.0007 18.5405C48.0048 18.3779 47.2239 18.2988 46.6316 18.2988C45.0697 18.2988 43.6702 18.5405 42.4594 18.9976C41.2485 19.459 40.6562 20.2148 40.6562 21.2388C40.6562 22.2671 40.9809 22.3198 41.6258 22.645C42.2707 22.9658 43.135 23.2119 44.2099 23.3438C45.2847 23.48 46.4429 23.5898 47.6538 23.6689C49.2683 23.7788 50.8565 23.9678 52.4753 24.2095C54.0898 24.4512 55.542 24.8818 56.8625 25.4795C58.1787 26.0728 59.2009 26.9341 59.9555 28.0942C60.7101 29.2544 61.0041 30.7925 60.8988 32.7656C60.6268 34.5981 59.7669 36.1406 58.341 37.3535C56.9152 38.5664 55.1384 39.4585 53.0632 40.0518C50.9661 40.645 48.8384 40.9439 46.6579 40.9439H46.7413Z" fill="white"/>
<path id="Vector_3" d="M63.7504 52.8179L71.5025 38.4873L57.3187 13.0869V12.9814H65.7158L73.762 27.7998L75.4861 32.1724L77.2103 27.8525L85.1511 12.9814H93.3069V13.2231L71.9325 52.8442H63.7504V52.8179Z" fill="white"/>
<path id="Vector_4" d="M91.2055 40.377V12.9551H97.3959L98.0408 16.2993C98.848 15.0029 99.9273 14.0317 101.274 13.4121C102.643 12.7925 104.042 12.4937 105.499 12.4937C106.951 12.4937 109.399 12.8979 111.123 13.7109C112.848 14.5195 114.001 15.8159 114.624 17.5693C115.59 15.8159 116.91 14.5195 118.608 13.7109C120.301 12.8979 122.157 12.4937 124.149 12.4937C126.141 12.4937 128.405 12.8979 130.208 13.7109C132.037 14.5195 133.489 15.9214 134.569 17.9209C135.67 19.916 136.209 22.7505 136.209 26.3936V40.4033H128.808V26.3408C128.808 23.5898 128.352 21.6431 127.435 20.5093C126.518 19.3755 125.281 18.7822 123.745 18.7559C121.675 18.7559 120.113 19.4854 119.038 20.9707C117.959 22.4561 117.423 24.3149 117.423 26.5825V40.4033H110.018V26.5298C110.018 23.7788 109.588 21.7793 108.702 20.5664C107.811 19.3491 106.627 18.7295 105.095 18.7031C103.937 18.7031 102.889 18.9712 101.893 19.5117C100.923 20.0522 100.142 20.918 99.5237 22.0781C98.9314 23.2383 98.6331 24.8291 98.6331 26.8286V40.4297H91.1792V40.377H91.2055Z" fill="white"/>
<path id="Vector_5" d="M154.565 40.834C152.815 40.9438 151.069 40.7021 149.371 40.0518C147.678 39.4058 146.247 38.2456 145.146 36.5713L144.392 40.377H138.201V0.0527344H145.602V16.4092C146.41 15.1919 147.542 14.2207 149.02 13.5483C150.503 12.8452 151.981 12.4937 153.491 12.4937C156.505 12.4937 159.115 13.1177 161.322 14.3569C163.528 15.6006 165.226 17.3013 166.411 19.459C167.595 21.6167 168.188 23.9941 168.188 26.666C168.188 29.3379 167.701 31.0649 166.731 33.1436C165.762 35.2485 164.283 36.9756 162.291 38.3774C160.299 39.7837 157.742 40.5923 154.592 40.834H154.565ZM153.061 34.3301C154.78 34.3301 156.206 33.9521 157.338 33.1699C158.47 32.4141 159.304 31.4165 159.87 30.2256C160.436 29.0391 160.703 27.8525 160.703 26.666C160.703 25.4795 160.436 24.1831 159.87 23.0229C159.304 21.8584 158.47 20.8872 157.338 20.1313C156.206 19.3755 154.78 18.9976 153.061 18.9976C150.608 18.9976 148.7 19.7534 147.3 21.2651C145.927 22.7769 145.251 24.6401 145.282 26.8286C145.282 28.9336 145.98 30.7134 147.406 32.146C148.831 33.5742 150.692 34.3037 153.03 34.3037L153.061 34.3301Z" fill="white"/>
<path id="Vector_6" d="M169.1 0.0527344H176.501V40.377H169.1V0.0527344Z" fill="white"/>
<g id="Clip path group">
<mask id="mask0_48_1151" style="mask-type:luminance" maskUnits="userSpaceOnUse" x="178" y="31" width="10" height="11">
<g id="e80c907429">
<path id="Vector_7" d="M178.015 31.5H187.053V41.625H178.015V31.5Z" fill="white"/>
</g>
</mask>
<g mask="url(#mask0_48_1151)">
<g id="Group">
<path id="Vector_8" d="M182.639 32.0361C180.217 32.0361 178.226 34.0049 178.226 36.4614C178.226 38.918 180.191 40.8911 182.639 40.8911C185.087 40.8911 187.053 38.918 187.053 36.4614C187.053 34.0049 185.087 32.0361 182.639 32.0361Z" fill="white"/>
</g>
</g>
</g>
<g id="Clip path group_2">
<mask id="mask1_48_1151" style="mask-type:luminance" maskUnits="userSpaceOnUse" x="-1" y="6" width="16" height="16">
<g id="1739c3dd16">
<path id="Vector_9" d="M-0.254517 6.75H14.039V21.375H-0.254517V6.75Z" fill="white"/>
</g>
</mask>
<g mask="url(#mask1_48_1151)">
<g id="Group_2">
<path id="Vector_10" d="M13.7143 7.36523H-0.254517V21.1597H4.66792V18.5669H2.35587V9.90527H11.0776V12.0894H13.7143V7.36523Z" fill="white"/>
</g>
</g>
</g>
</g>
<defs>
<clipPath id="clip0_48_1151">
<rect width="187" height="54" fill="white"/>
</clipPath>
</defs>
</svg>
